# xmcd CD database file
# Copyright (C) 1995-1998 Ti Kan
#
# Track frame offsets:
#	183
#	3733
#	16773
#	35800
#	52148
#	80225
#	97493
#	118700
#	134298
#	150955
#	157428
#	178305
#	198425
#	217953
#	233870
#	251953
#	272998
#	294663
#
# Disc length: 4318 seconds
#
# Revision: 1
# Processed by: cddbd v1.4PL0 Copyright (c) Steve Scherf et al.
# Submitted via: CDex 1.30
#
DISCID=1d10dc12
DTITLE=Kampec Dolores - Levit ci
DYEAR=2001
DGENRE=Blues
TTITLE0=Nyitány
TTITLE1=Levitáció
TTITLE2=Szépsége titkos
TTITLE3=Kínai kép
TTITLE4=Anae
TTITLE5=Három vagy hét
TTITLE6=Egy róka szállt itt
TTITLE7=Király
TTITLE8=Olajfák
TTITLE9=Közhírré tétetik
TTITLE10=Hajam, arcom
TTITLE11=Ideje van
TTITLE12=Holdsugár
TTITLE13=Suhanni
TTITLE14=Budapest
TTITLE15=Tûztó
TTITLE16=Hejhó
TTITLE17=Ikonok
EXTD=\nYEAR: 2001  ID3G:   0
EXTT0=
EXTT1=
EXTT2=
EXTT3=
EXTT4=
EXTT5=
EXTT6=
EXTT7=
EXTT8=
EXTT9=
EXTT10=
EXTT11=
EXTT12=
EXTT13=
EXTT14=
EXTT15=
EXTT16=
EXTT17=
PLAYORDER=
